<svg width="24" height="24" viewBox="0 0 24 24" fill="none" xmlns="http://www.w3.org/2000/svg">
<path d="M0 0H24V24H0V0Z" fill="white"/>
<path fill-rule="evenodd" clip-rule="evenodd" d="M2.25 4.5C2.25 4.08579 2.58579 3.75 3 3.75H5H5.56448L5.72071 4.29244L6.28448 6.25H19.445C20.23 6.25 20.7842 7.019 20.536 7.76366L18.7115 13.2372L18.5406 13.75H18H8.1113L8.5913 15.75H17.5C17.9142 15.75 18.25 16.0858 18.25 16.5C18.25 16.9142 17.9142 17.25 17.5 17.25H8H7.4087L7.27071 16.675L6.43071 13.175L4.99464 7.19139L4.43552 5.25H3C2.58579 5.25 2.25 4.91421 2.25 4.5ZM6.6713 7.75L7.7513 12.25H17.4594L18.9594 7.75H6.6713ZM10 19.5C10 20.0523 9.55228 20.5 9 20.5C8.44772 20.5 8 20.0523 8 19.5C8 18.9477 8.44772 18.5 9 18.5C9.55228 18.5 10 18.9477 10 19.5ZM16.5 20.5C17.0523 20.5 17.5 20.0523 17.5 19.5C17.5 18.9477 17.0523 18.5 16.5 18.5C15.9477 18.5 15.5 18.9477 15.5 19.5C15.5 20.0523 15.9477 20.5 16.5 20.5Z" fill="currentColor"/>
<path d="M0 0V-1H-1V0H0ZM24 0H25V-1H24V0ZM24 24V25H25V24H24ZM0 24H-1V25H0V24ZM0 1H24V-1H0V1ZM23 0V24H25V0H23ZM24 23H0V25H24V23ZM1 24V0H-1V24H1Z" fill="currentColor"/>
</svg>
